# Blender 3.5.1
# www.blender.org
mtllib target_circle.mtl
o Sphere
v 0.000000 -0.000000 -0.957306
v 0.000000 -0.107184 -0.951286
v 0.000000 -0.213021 -0.933304
v 0.000000 -0.316178 -0.903585
v 0.000000 -0.415359 -0.862503
v 0.000000 -0.509317 -0.810574
v 0.000000 -0.596870 -0.748452
v 0.000000 -0.676917 -0.676917
v 0.000000 -0.748452 -0.596870
v 0.000000 -0.810574 -0.509317
v 0.000000 -0.862503 -0.415359
v 0.000000 -0.903585 -0.316178
v 0.000000 -0.933304 -0.213020
v 0.000000 -0.951286 -0.107184
v 0.000000 -0.957305 0.000000
v 0.000000 -0.951286 0.107184
v 0.000000 -0.933304 0.213021
v 0.000000 -0.903585 0.316178
v 0.000000 -0.862502 0.415359
v 0.000000 -0.810574 0.509317
v 0.000000 -0.748451 0.596870
v 0.000000 -0.676917 0.676917
v 0.000000 -0.596870 0.748451
v 0.000000 -0.509317 0.810574
v 0.000000 -0.415359 0.862502
v 0.000000 -0.316178 0.903584
v 0.000000 -0.213020 0.933304
v 0.000000 -0.107184 0.951286
v -0.000000 0.000000 0.957305
v -0.000000 0.107184 0.951286
v -0.000000 0.213021 0.933303
v -0.000000 0.316178 0.903584
v -0.000000 0.415359 0.862502
v -0.000000 0.509317 0.810573
v -0.000000 0.596870 0.748451
v -0.000000 0.676917 0.676917
v -0.000000 0.748451 0.596870
v -0.000000 0.810573 0.509317
v -0.000000 0.862502 0.415359
v -0.000000 0.903584 0.316178
v -0.000000 0.933303 0.213020
v -0.000000 0.951286 0.107184
v -0.000000 0.957305 -0.000000
v -0.000000 0.951285 -0.107184
v -0.000000 0.933303 -0.213021
v -0.000000 0.903584 -0.316178
v -0.000000 0.862502 -0.415359
v -0.000000 0.810573 -0.509317
v -0.000000 0.748451 -0.596870
v -0.000000 0.676916 -0.676917
v -0.000000 0.596869 -0.748451
v -0.000000 0.509317 -0.810573
v -0.000000 0.415359 -0.862502
v -0.000000 0.316177 -0.903584
v -0.000000 0.213020 -0.933303
v -0.000000 0.107184 -0.951285
v 0.000000 -0.000000 -0.915250
v 0.000000 -0.102476 -0.909495
v 0.000000 -0.203662 -0.892303
v 0.000000 -0.302288 -0.863889
v 0.000000 -0.397112 -0.824612
v 0.000000 -0.486942 -0.774965
v 0.000000 -0.570649 -0.715571
v 0.000000 -0.647180 -0.647180
v 0.000000 -0.715571 -0.570649
v 0.000000 -0.774965 -0.486942
v 0.000000 -0.824612 -0.397112
v 0.000000 -0.863889 -0.302288
v 0.000000 -0.892303 -0.203662
v 0.000000 -0.909495 -0.102475
v 0.000000 -0.915250 0.000000
v 0.000000 -0.909495 0.102476
v 0.000000 -0.892303 0.203662
v 0.000000 -0.863889 0.302288
v 0.000000 -0.824612 0.397112
v 0.000000 -0.774964 0.486942
v 0.000000 -0.715571 0.570649
v 0.000000 -0.647179 0.647179
v 0.000000 -0.570649 0.715571
v 0.000000 -0.486942 0.774964
v 0.000000 -0.397112 0.824612
v 0.000000 -0.302288 0.863889
v 0.000000 -0.203662 0.892303
v 0.000000 -0.102475 0.909495
v -0.000000 0.000000 0.915250
v -0.000000 0.102476 0.909495
v -0.000000 0.203662 0.892302
v -0.000000 0.302288 0.863889
v -0.000000 0.397112 0.824611
v -0.000000 0.486942 0.774964
v -0.000000 0.570649 0.715571
v -0.000000 0.647179 0.647179
v -0.000000 0.715571 0.570649
v -0.000000 0.774964 0.486942
v -0.000000 0.824611 0.397112
v -0.000000 0.863889 0.302288
v -0.000000 0.892302 0.203662
v -0.000000 0.909495 0.102475
v -0.000000 0.915249 -0.000000
v -0.000000 0.909495 -0.102476
v -0.000000 0.892302 -0.203662
v -0.000000 0.863889 -0.302288
v -0.000000 0.824611 -0.397112
v -0.000000 0.774964 -0.486942
v -0.000000 0.715571 -0.570649
v -0.000000 0.647179 -0.647179
v -0.000000 0.570648 -0.715571
v -0.000000 0.486942 -0.774964
v -0.000000 0.397111 -0.824611
v -0.000000 0.302287 -0.863889
v -0.000000 0.203662 -0.892302
v -0.000000 0.102475 -0.909494
vn 1.0000 -0.0000 -0.0000
vn -1.0000 -0.0000 -0.0000
vt 0.000000 0.000000
vt 0.000000 0.000000
vt 0.000000 0.000000
vt 0.000000 0.000000
vt 0.000000 0.000000
vt 0.000000 0.000000
vt 0.000000 0.000000
vt 0.000000 0.000000
vt 0.000000 0.000000
vt 0.000000 0.000000
vt 0.000000 0.000000
vt 0.000000 0.000000
vt 0.000000 0.000000
vt 0.000000 0.000000
vt 0.000000 0.000000
vt 0.000000 0.000000
vt 0.000000 0.000000
vt 0.000000 0.000000
vt 0.000000 0.000000
vt 0.000000 0.000000
vt 0.000000 0.000000
vt 0.000000 0.000000
vt 0.000000 0.000000
vt 0.000000 0.000000
vt 0.000000 0.000000
vt 0.000000 0.000000
vt 0.000000 0.000000
vt 0.000000 0.000000
vt 0.000000 0.000000
vt 0.000000 0.000000
vt 0.000000 0.000000
vt 0.000000 0.000000
vt 0.000000 0.000000
vt 0.000000 0.000000
vt 0.000000 0.000000
vt 0.000000 0.000000
vt 0.000000 0.000000
vt 0.000000 0.000000
vt 0.000000 0.000000
vt 0.000000 0.000000
vt 0.000000 0.000000
vt 0.000000 0.000000
vt 0.000000 0.000000
vt 0.000000 0.000000
vt 0.000000 0.000000
vt 0.000000 0.000000
vt 0.000000 0.000000
vt 0.000000 0.000000
vt 0.000000 0.000000
vt 0.000000 0.000000
vt 0.000000 0.000000
vt 0.000000 0.000000
vt 0.000000 0.000000
vt 0.000000 0.000000
vt 0.000000 0.000000
vt 0.000000 0.000000
vt 0.000000 0.000000
vt 0.000000 0.000000
vt 0.000000 0.000000
vt 0.000000 0.000000
vt 0.000000 0.000000
vt 0.000000 0.000000
vt 0.000000 0.000000
vt 0.000000 0.000000
vt 0.000000 0.000000
vt 0.000000 0.000000
vt 0.000000 0.000000
vt 0.000000 0.000000
vt 0.000000 0.000000
vt 0.000000 0.000000
vt 0.000000 0.000000
vt 0.000000 0.000000
vt 0.000000 0.000000
vt 0.000000 0.000000
vt 0.000000 0.000000
vt 0.000000 0.000000
vt 0.000000 0.000000
vt 0.000000 0.000000
vt 0.000000 0.000000
vt 0.000000 0.000000
vt 0.000000 0.000000
vt 0.000000 0.000000
vt 0.000000 0.000000
vt 0.000000 0.000000
vt 0.000000 0.000000
vt 0.000000 0.000000
vt 0.000000 0.000000
vt 0.000000 0.000000
vt 0.000000 0.000000
vt 0.000000 0.000000
vt 0.000000 0.000000
vt 0.000000 0.000000
vt 0.000000 0.000000
vt 0.000000 0.000000
vt 0.000000 0.000000
vt 0.000000 0.000000
vt 0.000000 0.000000
vt 0.000000 0.000000
vt 0.000000 0.000000
vt 0.000000 0.000000
vt 0.000000 0.000000
vt 0.000000 0.000000
vt 0.000000 0.000000
vt 0.000000 0.000000
vt 0.000000 0.000000
vt 0.000000 0.000000
vt 0.000000 0.000000
vt 0.000000 0.000000
vt 0.000000 0.000000
vt 0.000000 0.000000
vt 0.000000 0.000000
vt 0.000000 0.000000
s 0
usemtl Material.001
f 34/34/1 33/33/1 89/89/1 90/90/1
f 8/8/1 7/7/1 63/63/1 64/64/1
f 35/35/1 34/34/1 90/90/1 91/91/1
f 8/8/2 9/9/2 65/65/2 64/64/2
f 36/36/1 35/35/1 91/91/1 92/92/1
f 10/10/1 9/9/1 65/65/1 66/66/1
f 37/37/1 36/36/1 92/92/1 93/93/1
f 11/11/1 10/10/1 66/66/1 67/67/1
f 38/38/1 37/37/1 93/93/1 94/94/1
f 12/12/1 11/11/1 67/67/1 68/68/1
f 39/39/1 38/38/1 94/94/1 95/95/1
f 13/13/1 12/12/1 68/68/1 69/69/1
f 40/40/1 39/39/1 95/95/1 96/96/1
f 14/14/1 13/13/1 69/69/1 70/70/1
f 41/41/1 40/40/1 96/96/1 97/97/1
f 15/15/1 14/14/1 70/70/1 71/71/1
f 42/42/1 41/41/1 97/97/1 98/98/1
f 16/16/1 15/15/1 71/71/1 72/72/1
f 43/43/1 42/42/1 98/98/1 99/99/1
f 17/17/1 16/16/1 72/72/1 73/73/1
f 43/43/2 44/44/2 100/100/2 99/99/2
f 18/18/1 17/17/1 73/73/1 74/74/1
f 45/45/1 44/44/1 100/100/1 101/101/1
f 19/19/1 18/18/1 74/74/1 75/75/1
f 45/45/2 46/46/2 102/102/2 101/101/2
f 19/19/2 20/20/2 76/76/2 75/75/2
f 47/47/1 46/46/1 102/102/1 103/103/1
f 21/21/1 20/20/1 76/76/1 77/77/1
f 48/48/1 47/47/1 103/103/1 104/104/1
f 21/21/2 22/22/2 78/78/2 77/77/2
f 49/49/1 48/48/1 104/104/1 105/105/1
f 23/23/1 22/22/1 78/78/1 79/79/1
f 50/50/1 49/49/1 105/105/1 106/106/1
f 24/24/1 23/23/1 79/79/1 80/80/1
f 51/51/1 50/50/1 106/106/1 107/107/1
f 25/25/1 24/24/1 80/80/1 81/81/1
f 52/52/1 51/51/1 107/107/1 108/108/1
f 26/26/1 25/25/1 81/81/1 82/82/1
f 52/52/2 53/53/2 109/109/2 108/108/2
f 27/27/1 26/26/1 82/82/1 83/83/1
f 54/54/1 53/53/1 109/109/1 110/110/1
f 28/28/1 27/27/1 83/83/1 84/84/1
f 1/1/2 2/2/2 58/58/2 57/57/2
f 55/55/1 54/54/1 110/110/1 111/111/1
f 29/29/1 28/28/1 84/84/1 85/85/1
f 3/3/1 2/2/1 58/58/1 59/59/1
f 56/56/1 55/55/1 111/111/1 112/112/1
f 30/30/1 29/29/1 85/85/1 86/86/1
f 4/4/1 3/3/1 59/59/1 60/60/1
f 1/1/1 56/56/1 112/112/1 57/57/1
f 31/31/1 30/30/1 86/86/1 87/87/1
f 5/5/1 4/4/1 60/60/1 61/61/1
f 32/32/1 31/31/1 87/87/1 88/88/1
f 6/6/1 5/5/1 61/61/1 62/62/1
f 32/32/2 33/33/2 89/89/2 88/88/2
f 6/6/2 7/7/2 63/63/2 62/62/2
